#N canvas 441 330 504 400 10;
#X text 124 19 - MIDI event selection by channel and type;
#X obj 21 19 midiselect;
#X obj 115 198 midiselect 1 2 s;
#X text 36 198 Example;
#X obj 92 316 midiselect;
#X obj 68 285 midiin;
#X obj 118 346 midiout;
#X msg 183 290 select \$1 s;
#X obj 219 247 hsl 128 15 1 16 0 1 empty empty empty -2 -8 0 10 -262144
-1 -1 0 1;
#X floatatom 216 267 5 0 0 0 - - -, f 5;
#X text 226 230 channel selection;
#X text 222 198 <-channel 1 \, channel 2 \, and sysex;
#X text 41 116 - 1-16 : channel mode message for the given channel
;
#X text 41 144 - s: any system exclusive message;
#X text 41 130 - c : any channel mode message;
#X text 263 290 <-edits the selection at any time;
#X text 24 47 For each MIDI message received \, this object evaluates
a set of conditions. If any of the conditions match \, the message
is transmitted to the left outlet \, or to the right one otherwise.
;
#X connect 4 0 6 0;
#X connect 5 0 4 0;
#X connect 7 0 4 0;
#X connect 8 0 9 0;
#X connect 8 0 7 0;
