#N canvas 493 181 612 332 10;
#X obj 326 152 metro 500;
#X obj 326 127 r metro;
#X msg 414 81 \; metro 0;
#X msg 413 22 \; pd dsp 1 \; metro 1;
#X text 498 41 <-Click to start;
#X text 491 90 <-Click to stop;
#N canvas 0 50 450 250 (subpatch) 0;
#X array \$0-input 100 float 0;
#X coords 0 1 100 -1 200 100 1 0 0;
#X restore 34 221 graph;
#N canvas 0 50 450 250 (subpatch) 0;
#X array \$0-output 100 float 0;
#X coords 0 1 100 -1 200 100 1 0 0;
#X restore 239 221 graph;
#X obj 34 182 tabwrite~ \$0-input;
#X obj 159 182 tabwrite~ \$0-output;
#X obj 126 89 osc~ 440;
#X obj 21 19 limit~;
#X text 83 19 - Limiter;
#X obj 126 136 limit~ 0.5;
#X text 192 136 <-initial threshold;
#X msg 235 107 threshold 0.5;
#X msg 235 90 threshold 0.1;
#X text 24 47 Attenuates the peaks of a signal in order to keep them
under a specified threshold.;
#X connect 0 0 8 0;
#X connect 0 0 9 0;
#X connect 1 0 0 0;
#X connect 1 0 0 0;
#X connect 10 0 13 0;
#X connect 10 0 8 0;
#X connect 13 0 9 0;
#X connect 15 0 13 0;
#X connect 16 0 13 0;
