#N canvas 345 95 665 488 10;
#X obj 435 304 metro 500;
#X obj 435 279 r metro;
#X msg 457 81 \; metro 0;
#X msg 456 22 \; pd dsp 1 \; metro 1;
#X text 541 41 <-Click to start;
#X text 534 90 <-Click to stop;
#N canvas 0 50 450 250 (subpatch) 0;
#X array \$0-lfo1 100 float 0;
#X coords 0 1 100 0 200 100 1 0 0;
#X restore 34 378 graph;
#X obj 38 141 hsl 128 15 0 1000 0 0 empty empty empty -2 -8 0 10 -262144
-1 -1 0 1;
#X text 38 123 set the frequency;
#X obj 21 19 lfos~;
#X obj 35 286 lfos~ 3 440 sin;
#X obj 34 329 tabwrite~ \$0-lfo1;
#X obj 147 329 tabwrite~ \$0-lfo2;
#X obj 260 329 tabwrite~ \$0-lfo3;
#N canvas 0 50 450 250 (subpatch) 0;
#X array \$0-lfo2 100 float 0;
#X coords 0 1 100 0 200 100 1 0 0;
#X restore 239 378 graph;
#N canvas 0 50 450 250 (subpatch) 0;
#X array \$0-lfo3 100 float 0;
#X coords 0 1 100 0 200 100 1 0 0;
#X restore 444 378 graph;
#X msg 391 158 shape sqr;
#X msg 391 141 shape sin;
#X msg 391 175 shape saw;
#X msg 391 192 shape ramp;
#X msg 391 209 shape tri;
#X text 391 123 set the shape;
#X text 135 286 <-LFO count \, initial frequency \, initial shape;
#X text 208 123 set the phases (degrees);
#X msg 208 141 phases 0 120 240;
#X text 82 19 - multiple LFOs with phase offsets;
#X msg 208 175 phases 0 0 0;
#X msg 208 158 phases 10 180 350;
#X text 24 47 Generates multiple LFOs with outputs in the range (0
\, 1). Each output is delayed by a fixed phase offset \, which does
not drift with time. By default phase offsets are positioned to be
spaced evenly within the period.;
#X msg 495 234 randomize \$1;
#X obj 498 214 hsl 128 15 0 5 0 1 empty empty empty -2 -8 0 10 -262144
-1 -1 0 1;
#X text 506 196 set the randomness;
#X connect 0 0 11 0;
#X connect 0 0 12 0;
#X connect 0 0 13 0;
#X connect 1 0 0 0;
#X connect 1 0 0 0;
#X connect 7 0 10 0;
#X connect 10 0 11 0;
#X connect 10 1 12 0;
#X connect 10 2 13 0;
#X connect 16 0 10 0;
#X connect 17 0 10 0;
#X connect 18 0 10 0;
#X connect 19 0 10 0;
#X connect 20 0 10 0;
#X connect 24 0 10 0;
#X connect 26 0 10 0;
#X connect 27 0 10 0;
#X connect 29 0 10 0;
#X connect 30 0 29 0;
