#N canvas 221 647 409 255 10;
#X obj 65 160 midiin;
#X obj 21 19 miditranspose;
#X text 124 19 - MIDI note transposition;
#X text 24 47 Transposes MIDI note events by a given amount \, expressed
in semitones.;
#X obj 65 183 miditranspose 0;
#X obj 65 206 midiout;
#X obj 222 108 hsl 128 15 -12 12 0 1 empty empty empty -2 -8 0 10 -262144
-1 -1 6350 1;
#X text 165 183 <-initial transposition;
#X floatatom 219 151 5 0 0 0 - - -, f 5;
#X obj 219 128 expr int($f1);
#X connect 0 0 4 0;
#X connect 4 0 5 0;
#X connect 6 0 4 1;
#X connect 6 0 9 0;
#X connect 9 0 8 0;
