#N canvas 614 239 409 255 10;
#X obj 21 19 opl3~;
#X obj 124 90 midiin;
#X obj 213 175 opl3~;
#X obj 214 202 dac~;
#X text 24 47 This is an old school FM sound generator based on NukedOPL
\, an emulation of the Yamaha YMF262 sound chip.;
#X text 100 19 - OPL3 emulation with MIDI input;
#X obj 124 136 route 1;
#X text 82 168 MIDI from port 1->;
#X obj 124 113 list prepend;
#X connect 1 0 8 0;
#X connect 1 1 8 1;
#X connect 2 0 3 0;
#X connect 2 1 3 1;
#X connect 6 0 2 0;
#X connect 8 0 6 0;
