#N canvas 698 301 505 397 10;
#X obj 219 135 osc~ 1000;
#X obj 119 167 nlcubic~;
#N canvas 0 50 450 250 (subpatch) 0;
#X array \$0-orig 100 float 0;
#X coords 0 1 100 -1 200 100 1 0 0;
#X restore 48 276 graph;
#X obj 185 194 metro 500;
#X obj 185 169 r metro;
#X obj 148 222 tabwrite~ \$0-array;
#X msg 306 80 \; metro 0;
#X msg 305 21 \; pd dsp 1 \; metro 1;
#X text 390 40 <-Click to start;
#X text 383 89 <-Click to stop;
#X obj 272 222 tabwrite~ \$0-orig;
#N canvas 0 50 450 250 (subpatch) 0;
#X array \$0-array 100 float 0;
#X coords 0 1 100 -1 200 100 1 0 0;
#X restore 268 276 graph;
#X obj 21 19 nlcubic~;
#X text 111 19 - cubic non-linearity;
#X obj 14 76 hsl 128 15 0 1 0 1 empty empty empty -2 -8 0 10 -262144
-1 -1 6350 1;
#X text 19 56 threshold;
#X msg 11 97 threshold \$1;
#X msg 182 99 coef 0.5 0.5 0.5;
#X msg 182 76 coef 0.1 0.5 0.9;
#X text 192 56 coefficients;
#X connect 0 0 1 0;
#X connect 0 0 10 0;
#X connect 1 0 5 0;
#X connect 3 0 5 0;
#X connect 3 0 10 0;
#X connect 4 0 3 0;
#X connect 4 0 3 0;
#X connect 14 0 16 0;
#X connect 16 0 1 0;
#X connect 17 0 1 0;
#X connect 18 0 1 0;
