#N canvas 49 249 618 554 10;
#X obj 419 305 dac~;
#X obj 418 274 *~;
#X obj 441 246 line~;
#X msg 441 190 0.1 100;
#X msg 460 215 0 100;
#X text 512 185 on;
#X text 509 214 off;
#X text 498 243 envelope;
#X text 498 256 generator;
#X text 419 328 audio output;
#X obj 88 242 metro 500;
#X obj 88 217 r metro;
#N canvas 0 50 450 250 (subpatch) 0;
#X array \$0-outp 100 float 0;
#X coords 0 1 100 -1 200 100 1 0 0;
#X restore 66 322 graph;
#X msg 420 87 \; metro 0;
#X msg 419 28 \; pd dsp 1 \; metro 1;
#X text 504 47 <-Click to start;
#X text 497 96 <-Click to stop;
#N canvas 6 59 450 250 (subpatch) 0;
#X array \$0-sync 100 float 0;
#X coords 0 1 100 -1 200 100 1 0 0;
#X restore 66 437 graph;
#X text 428 169 amplitude controls:;
#X obj 242 180 hsl 128 15 0 0.5 0 1 empty empty empty -2 -8 0 10 -262144
-1 -1 12700 1;
#X obj 52 270 tabwrite~ \$0-outp;
#X obj 202 270 tabwrite~ \$0-sync;
#X text 230 163 sharpness from 0 to 0.5;
#X text 290 366 graph the output;
#X text 290 478 graph the sync signal;
#X text 71 84 output \, sync;
#X text 21 168 slave osc;
#X text 103 124 master osc;
#X text 173 67 <-- optional frequency;
#X obj 242 147 hsl 128 15 -1 1 0 1 empty empty empty -2 -8 0 10 -262144
-1 -1 6300 1;
#X text 231 130 waveform from -1 to 1;
#X text 71 50 frequency \, sync \, wave modulation \, waveform \, sharpness
;
#X obj 29 23 bleprect~;
#X text 105 24 - rectangle wave oscillator with hard sync;
#X obj 83 67 bleprect~ 440;
#X obj 122 140 bleprect~ 1000;
#X obj 53 185 bleprect~ 1500;
#X connect 1 0 0 0;
#X connect 2 0 1 1;
#X connect 3 0 2 0;
#X connect 4 0 2 0;
#X connect 10 0 20 0;
#X connect 10 0 21 0;
#X connect 11 0 10 0;
#X connect 11 0 10 0;
#X connect 19 0 36 4;
#X connect 29 0 36 3;
#X connect 35 1 21 0;
#X connect 35 1 36 1;
#X connect 36 0 1 0;
#X connect 36 0 20 0;
