#N canvas 657 159 618 554 10;
#X obj 29 23 blepsaw~;
#X obj 416 305 dac~;
#X obj 415 274 *~;
#X obj 438 246 line~;
#X msg 438 190 0.1 100;
#X msg 457 215 0 100;
#X text 509 185 on;
#X text 506 214 off;
#X text 495 243 envelope;
#X text 495 256 generator;
#X text 416 328 audio output;
#X obj 89 242 metro 500;
#X obj 89 217 r metro;
#N canvas 0 50 450 250 (subpatch) 0;
#X array \$0-outp 100 float 0;
#X coords 0 1 100 -1 200 100 1 0 0;
#X restore 66 322 graph;
#X msg 420 87 \; metro 0;
#X msg 419 28 \; pd dsp 1 \; metro 1;
#X text 504 47 <-Click to start;
#X text 497 96 <-Click to stop;
#N canvas 6 59 450 250 (subpatch) 0;
#X array \$0-sync 100 float 0;
#X coords 0 1 100 -1 200 100 1 0 0;
#X restore 66 437 graph;
#X text 425 169 amplitude controls:;
#X obj 241 153 hsl 128 15 0 0.5 0 1 empty empty empty -2 -8 0 10 -262144
-1 -1 12700 1;
#X obj 53 270 tabwrite~ \$0-outp;
#X obj 203 270 tabwrite~ \$0-sync;
#X text 231 133 sharpness from 0 to 0.5;
#X text 290 366 graph the output;
#X text 290 478 graph the sync signal;
#X text 105 24 - sawtooth wave oscillator with hard sync;
#X obj 128 140 blepsaw~ 1000;
#X obj 54 177 blepsaw~ 1500;
#X text 131 50 frequency \, sync \, sharpness;
#X text 132 84 output \, sync;
#X text 37 161 slave osc;
#X text 104 124 master osc;
#X obj 144 67 blepsaw~ 440;
#X text 228 67 <-- optional frequency;
#X connect 2 0 1 0;
#X connect 3 0 2 1;
#X connect 4 0 3 0;
#X connect 5 0 3 0;
#X connect 11 0 21 0;
#X connect 11 0 22 0;
#X connect 12 0 11 0;
#X connect 12 0 11 0;
#X connect 20 0 28 2;
#X connect 27 1 22 0;
#X connect 27 1 28 1;
#X connect 28 0 2 0;
#X connect 28 0 21 0;
