#N canvas 689 298 395 266 10;
#X obj 21 19 robot~;
#X text 100 19 - Robotization;
#X obj 56 231 dac~ 1 2;
#X obj 69 96 adc~ 1 2;
#X obj 91 198 *~;
#X obj 64 198 *~;
#X obj 164 167 hsl 128 15 0 1 0 1 empty empty empty -2 -8 0 10 -262144
-1 -1 0 1;
#X text 172 151 effect volume;
#X text 192 122 <-pitch;
#X obj 56 122 robot~ 220;
#X obj 125 122 robot~ 220;
#X text 24 47 This provides a robotic sound effect. It operates in
the spectral domain by setting the phase to zero.;
#X connect 3 0 9 0;
#X connect 3 1 10 0;
#X connect 4 0 2 1;
#X connect 5 0 2 0;
#X connect 6 0 4 0;
#X connect 6 0 5 0;
#X connect 9 0 5 1;
#X connect 10 0 4 1;
