#N canvas 493 181 612 332 10;
#X obj 269 153 metro 500;
#X obj 269 128 r metro;
#X msg 414 81 \; metro 0;
#X msg 413 22 \; pd dsp 1 \; metro 1;
#X text 498 41 <-Click to start;
#X text 491 90 <-Click to stop;
#N canvas 0 50 450 250 (subpatch) 0;
#X array \$0-input 100 float 0;
#X coords 0 1 100 -1 200 100 1 0 0;
#X restore 34 221 graph;
#N canvas 0 50 450 250 (subpatch) 0;
#X array \$0-output 100 float 0;
#X coords 0 1 100 -1 200 100 1 0 0;
#X restore 239 221 graph;
#X obj 21 19 dcremove~;
#X text 100 19 - DC offset remover;
#X text 24 47 Removes the DC offset from a signal. High pass filtering
has an impact on the output signal but it should be minimal.;
#X obj 126 155 dcremove~;
#X obj 34 183 tabwrite~ \$0-input;
#X obj 159 183 tabwrite~ \$0-output;
#X obj 126 89 osc~ 440;
#X obj 126 111 +~ 1;
#X obj 126 133 *~ 0.5;
#X connect 0 0 12 0;
#X connect 0 0 13 0;
#X connect 1 0 0 0;
#X connect 1 0 0 0;
#X connect 11 0 13 0;
#X connect 14 0 15 0;
#X connect 15 0 16 0;
#X connect 16 0 11 0;
#X connect 16 0 12 0;
